<?xml version="1.0" encoding="UTF-8" standalone="no"?>
<!-- Created with Inkscape (http://www.inkscape.org/) -->

<svg
   xmlns:dc="http://purl.org/dc/elements/1.1/"
   xmlns:cc="http://creativecommons.org/ns#"
   xmlns:rdf="http://www.w3.org/1999/02/22-rdf-syntax-ns#"
   xmlns:svg="http://www.w3.org/2000/svg"
   xmlns="http://www.w3.org/2000/svg"
   xmlns:sodipodi="http://sodipodi.sourceforge.net/DTD/sodipodi-0.dtd"
   xmlns:inkscape="http://www.inkscape.org/namespaces/inkscape"
   width="210mm"
   height="297mm"
   viewBox="0 0 210 297"
   version="1.1"
   id="svg8"
   inkscape:version="0.92.2 5c3e80d, 2017-08-06"
   sodipodi:docname="singularity-logo.svg">
  <defs
     id="defs2" />
  <sodipodi:namedview
     id="base"
     pagecolor="#ffffff"
     bordercolor="#666666"
     borderopacity="1.0"
     inkscape:pageopacity="0.0"
     inkscape:pageshadow="2"
     inkscape:zoom="0.35"
     inkscape:cx="-30"
     inkscape:cy="560"
     inkscape:document-units="mm"
     inkscape:current-layer="layer1"
     showgrid="false"
     inkscape:window-width="1440"
     inkscape:window-height="775"
     inkscape:window-x="0"
     inkscape:window-y="1"
     inkscape:window-maximized="1" />
  <metadata
     id="metadata5">
    <rdf:RDF>
      <cc:Work
         rdf:about="">
        <dc:format>image/svg+xml</dc:format>
        <dc:type
           rdf:resource="http://purl.org/dc/dcmitype/StillImage" />
        <dc:title></dc:title>
      </cc:Work>
    </rdf:RDF>
  </metadata>
  <g
     inkscape:label="Layer 1"
     inkscape:groupmode="layer"
     id="layer1">
    <g
       id="g75"
       transform="translate(6.0839013,-4.7368597)">
      <path
         style="fill:#b9babe;stroke-width:0.28575"
         d="m 104.07802,208.71382 c -0.10477,-0.10477 -0.1905,-3.23942 -0.1905,-6.96588 0,-5.07952 0.0894,-6.84593 0.35719,-7.0572 0.19645,-0.15499 1.31617,-0.367 2.48826,-0.47113 7.57308,-0.67278 16.36824,-3.94658 23.60741,-8.78731 6.8705,-4.59421 14.29453,-13.13441 17.73923,-20.40624 2.90942,-6.14185 4.6313,-11.89952 5.2587,-17.58425 0.19788,-1.79293 0.48578,-3.42292 0.63978,-3.62222 0.21494,-0.27816 1.81456,-0.34456 6.8844,-0.28575 l 6.60441,0.0766 0.0858,1.98436 c 0.1711,3.95892 -1.34657,11.56733 -3.62579,18.17692 -2.67195,7.74847 -6.45847,14.34895 -12.15285,21.18429 -3.67756,4.41441 -6.93397,7.53247 -11.07428,10.60382 -9.92631,7.36348 -20.2855,11.52865 -32.11431,12.91234 -4.23622,0.49553 -4.25263,0.49641 -4.50741,0.24164 z m -11.684737,-0.5284 C 80.008091,206.47604 69.944387,202.16106 60.16777,194.36819 47.879913,184.57364 39.905821,172.00613 36.302147,156.75495 c -0.748308,-3.16693 -1.847921,-10.2598 -1.85033,-11.93524 l -0.0015,-1.07673 6.777726,0.0766 6.777725,0.0766 0.48309,3.429 c 1.892511,13.43317 6.920086,23.49184 16.290935,32.59329 5.246653,5.09581 10.732428,8.68111 17.23519,11.26428 4.578538,1.81879 12.18092,3.41631 16.317286,3.42882 2.831161,0.009 2.720811,-0.29718 2.631911,7.29208 l -0.077,6.57203 -2.857503,0.0466 c -1.571625,0.0257 -4.107988,-0.12596 -5.636365,-0.33691 z m 1.350114,-30.44029 c -5.094928,-0.29111 -11.057482,-1.03382 -15.089364,-1.87957 -3.749697,-0.78656 -11.215014,-3.09976 -11.501921,-3.56399 -0.101424,-0.16411 1.522482,-5.5616 3.60868,-11.99444 2.954684,-9.11082 3.896722,-11.69606 4.261939,-11.69606 0.257869,0 1.387636,1.08465 2.510594,2.41033 3.439621,4.06055 8.211932,7.12351 12.495322,8.01973 2.564632,0.53661 3.451526,0.53212 5.088674,-0.0257 3.182366,-1.08434 3.720354,-4.26009 1.095797,-6.4685 -0.460312,-0.38733 -2.683064,-1.50893 -4.939449,-2.49244 -13.335982,-5.81288 -16.778441,-8.2239 -19.400661,-13.58778 -1.543787,-3.1579 -2.11443,-6.2367 -1.905615,-10.2814 0.295257,-5.71904 2.031508,-10.1657 5.342054,-13.68135 5.819462,-6.18 14.981939,-9.04137 28.951653,-9.04137 8.39369,0 16.68421,1.12146 24.62955,3.33163 3.88102,1.0796 4.42913,1.32809 4.42913,2.00808 0,0.4447 -7.02935,20.76486 -7.4694,21.59223 -0.14628,0.27503 -0.39811,0.50006 -0.55963,0.50006 -0.16152,0 -1.33847,-1.10375 -2.61544,-2.45278 -3.65962,-3.86614 -6.95249,-5.95978 -11.00277,-6.99567 -5.29022,-1.35301 -9.32807,-0.053 -9.32807,3.00321 0,2.18729 2.13685,3.54091 11.5443,7.31294 8.92492,3.57854 12.41029,5.49147 15.51913,8.5176 2.05008,1.99553 3.34333,4.07576 4.38169,7.04807 0.73923,2.11606 0.79801,2.60759 0.8027,6.71238 0.006,5.00255 -0.34014,6.74626 -2.01698,10.16901 -3.19523,6.52211 -10.17283,10.90476 -20.20323,12.68973 -5.72493,1.01879 -11.22984,1.26881 -18.628683,0.84607 z M 34.664581,140.58718 c -0.597986,-0.34829 -0.647458,-1.86193 -0.20607,-6.30477 1.667006,-16.77944 8.136034,-30.60014 19.851384,-42.411326 7.546066,-7.607799 15.957724,-12.87299 25.717502,-16.097607 4.884845,-1.613946 8.540553,-2.418123 13.777174,-3.030684 4.894561,-0.572547 7.111349,-0.564988 7.337759,0.02502 0.24826,0.646973 0.20652,13.056086 -0.0452,13.447619 -0.118,0.183498 -1.739705,0.465671 -3.702833,0.64428 -7.589749,0.690533 -13.259498,2.264953 -19.652861,5.457362 -5.423738,2.708243 -8.658094,5.081442 -13.43326,9.856616 -9.782951,9.78294 -14.573292,20.24109 -15.873351,34.65427 -0.186671,2.06954 -0.469437,3.72979 -0.655574,3.84917 -0.510271,0.32728 -12.539946,0.24477 -13.11463,-0.09 z m 119.612519,0.0892 c -0.19458,-0.12381 -0.46567,-1.79654 -0.65759,-4.05757 -0.42398,-4.99469 -1.21479,-9.02142 -2.60045,-13.24125 -4.17736,-12.72147 -13.18205,-23.544863 -25.19043,-30.278212 -5.41012,-3.033566 -12.23486,-5.24771 -18.32228,-5.944274 -1.59745,-0.182791 -3.06743,-0.463625 -3.26663,-0.624076 -0.27827,-0.22414 -0.34447,-1.888106 -0.28575,-7.182036 l 0.0764,-6.890306 2.00025,0.07685 c 2.75462,0.105837 7.42083,0.821382 10.97841,1.683499 8.8996,2.156656 17.56991,6.485442 25.16897,12.566 5.52436,4.420443 11.90526,11.537523 15.40912,17.186915 5.93323,9.56633 9.59688,21.44473 10.22413,33.14894 0.14094,2.62994 0.0971,3.30579 -0.2278,3.51147 -0.482,0.30514 -12.8318,0.34602 -13.30638,0.044 z"
         id="path85"
         inkscape:connector-curvature="0" />
      <path
         style="fill:#f2921e;stroke-width:0.28575"
         d="m 104.37838,208.44267 c -0.11281,-0.1128 -0.20511,-3.19172 -0.20511,-6.84203 0,-7.25758 -0.067,-6.98382 1.70948,-6.98382 1.97412,0 7.88146,-1.26305 11.42243,-2.44224 11.85339,-3.9473 20.70181,-10.84847 28.23503,-22.0214 1.41676,-2.10128 3.11862,-5.43262 4.36301,-8.54048 2.31243,-5.77529 3.21204,-9.24206 3.81874,-14.71613 l 0.33255,-3.00037 6.63476,-0.0767 6.63476,-0.0767 -0.005,1.93408 c -0.007,2.5069 -0.67765,7.18664 -1.5471,10.7921 -2.52724,10.48007 -6.6705,18.9029 -13.49414,27.43223 -7.94755,9.93417 -18.60879,17.36608 -30.68021,21.38705 -4.03668,1.34461 -9.60718,2.58407 -12.99495,2.89144 -1.10013,0.0998 -2.45445,0.24596 -3.00958,0.32478 -0.55513,0.0788 -1.10163,0.051 -1.21444,-0.0618 z M 91.743147,177.17223 c -4.355719,-0.32805 -11.005362,-1.2705 -14.144626,-2.0047 -3.286288,-0.76859 -9.646932,-2.78284 -9.856018,-3.12114 -0.23869,-0.38621 7.057443,-22.86616 7.41721,-22.853 0.162627,0.006 0.745739,0.59305 1.295808,1.30467 2.985688,3.86255 7.628406,7.22602 11.801939,8.55003 2.414333,0.76593 5.793939,0.95414 7.253273,0.40396 1.228796,-0.46328 2.634275,-1.9741 2.835806,-3.04835 0.249,-1.32728 -0.572795,-3.34555 -1.717846,-4.21893 -0.506721,-0.38649 -3.811251,-1.98319 -7.343404,-3.54823 -8.838217,-3.91605 -11.457253,-5.43892 -14.153456,-8.2297 -4.21521,-4.36307 -5.791244,-11.90475 -3.979966,-19.04502 2.635418,-10.38913 11.159978,-15.82436 27.163531,-17.31939 9.059932,-0.84636 21.150972,0.49272 31.361062,3.47322 2.3278,0.67952 3.07182,1.01279 3.07182,1.37597 0,0.26359 -1.29827,4.19695 -2.88505,8.74079 -1.58677,4.54385 -3.18637,9.12924 -3.55465,10.18978 -0.36829,1.06053 -0.75201,2.06154 -0.8527,2.22446 -0.1015,0.16424 -1.28687,-0.83127 -2.6604,-2.23431 -4.96392,-5.07054 -9.63918,-7.32514 -15.19321,-7.32678 -2.71794,-8.6e-4 -3.72662,0.37455 -4.96658,1.84817 -0.96106,1.14216 -0.99746,2.67752 -0.0952,4.01637 0.94151,1.3971 3.40463,2.71193 10.12943,5.40716 12.71231,5.09496 17.16374,8.09419 19.63307,13.22815 1.44966,3.01397 1.95892,5.46941 1.93724,9.34066 -0.0698,12.46508 -8.03827,19.96997 -23.81547,22.42993 -3.5728,0.55706 -13.789448,0.7847 -18.681603,0.41623 z m -57.162514,-37.1539 c -0.26386,-0.42693 0.11525,-5.43614 0.733762,-9.69526 2.205701,-15.18861 9.190441,-28.62392 20.529989,-39.489919 11.451635,-10.973405 25.208392,-16.926571 41.857134,-18.113457 2.259891,-0.161107 2.864892,-0.122098 3.067442,0.197781 0.30305,0.478599 0.34243,12.55308 0.0424,12.994728 -0.11547,0.169954 -1.88158,0.465969 -3.924692,0.657812 -15.747695,1.478666 -28.643977,8.690005 -38.13029,21.321685 -6.318348,8.41331 -9.701673,17.48276 -10.633146,28.50356 l -0.332083,3.92906 h -6.510691 c -4.319367,0 -6.574342,-0.10299 -6.699805,-0.30599 z m 119.765477,-0.0512 c -0.0557,-0.19645 -0.24194,-2.06607 -0.4139,-4.15471 -1.37687,-16.7233 -10.40809,-31.7859 -24.65506,-41.120644 -6.44102,-4.220215 -14.90507,-7.272716 -22.1035,-7.97148 -3.26192,-0.316639 -3.02269,0.270533 -2.93427,-7.202195 l 0.0768,-6.487905 1.00012,-0.09629 c 2.70197,-0.260145 11.4294,1.381996 16.71638,3.145329 13.30185,4.43648 25.9105,14.236933 34.24689,26.619415 2.38272,3.53918 5.80095,10.42061 7.18525,14.46502 1.24239,3.62982 2.50885,8.64877 3.10429,12.30215 0.58772,3.6061 1.15369,9.86614 0.94189,10.41809 -0.14533,0.37871 -1.07226,0.44041 -6.61632,0.44041 -4.91336,0 -6.4714,-0.085 -6.54854,-0.35719 z"
         id="path83"
         inkscape:connector-curvature="0" />
      <path
         style="fill:#24a0d8;stroke-width:0.28575"
         d="m 91.743147,177.17223 c -4.355719,-0.32805 -11.005362,-1.2705 -14.144626,-2.0047 -3.286288,-0.76859 -9.646932,-2.78284 -9.856018,-3.12114 -0.23869,-0.38621 7.057443,-22.86616 7.41721,-22.853 0.162627,0.006 0.745739,0.59305 1.295808,1.30467 2.985688,3.86255 7.628406,7.22602 11.801939,8.55003 2.414333,0.76593 5.793939,0.95414 7.253273,0.40396 1.228796,-0.46328 2.634275,-1.9741 2.835806,-3.04835 0.249,-1.32728 -0.572795,-3.34555 -1.717846,-4.21893 -0.506721,-0.38649 -3.811251,-1.98319 -7.343404,-3.54823 -8.838217,-3.91605 -11.457253,-5.43892 -14.153456,-8.2297 -4.21521,-4.36307 -5.791244,-11.90475 -3.979966,-19.04502 2.635418,-10.38913 11.159978,-15.82436 27.163531,-17.31939 9.059932,-0.84636 21.150972,0.49272 31.361062,3.47322 2.3278,0.67952 3.07182,1.01279 3.07182,1.37597 0,0.26359 -1.29827,4.19695 -2.88505,8.74079 -1.58677,4.54385 -3.18637,9.12924 -3.55465,10.18978 -0.36829,1.06053 -0.75201,2.06154 -0.8527,2.22446 -0.1015,0.16424 -1.28687,-0.83127 -2.6604,-2.23431 -4.96392,-5.07054 -9.63918,-7.32514 -15.19321,-7.32678 -2.71794,-8.6e-4 -3.72662,0.37455 -4.96658,1.84817 -0.96106,1.14216 -0.99746,2.67752 -0.0952,4.01637 0.94151,1.3971 3.40463,2.71193 10.12943,5.40716 12.71231,5.09496 17.16374,8.09419 19.63307,13.22815 1.44966,3.01397 1.95892,5.46941 1.93724,9.34066 -0.0698,12.46508 -8.03827,19.96997 -23.81547,22.42993 -3.5728,0.55706 -13.789448,0.7847 -18.681603,0.41623 z m -57.162514,-37.1539 c -0.26386,-0.42693 0.11525,-5.43614 0.733762,-9.69526 2.205701,-15.18861 9.190441,-28.62392 20.529989,-39.489919 11.451635,-10.973405 25.208392,-16.926571 41.857134,-18.113457 2.259891,-0.161107 2.864892,-0.122098 3.067442,0.197781 0.30305,0.478599 0.34243,12.55308 0.0424,12.994728 -0.11547,0.169954 -1.88158,0.465969 -3.924692,0.657812 -15.747695,1.478666 -28.643977,8.690005 -38.13029,21.321685 -6.318348,8.41331 -9.701673,17.48276 -10.633146,28.50356 l -0.332083,3.92906 h -6.510691 c -4.319367,0 -6.574342,-0.10299 -6.699805,-0.30599 z m 119.765477,-0.0512 c -0.0557,-0.19645 -0.24194,-2.06607 -0.4139,-4.15471 -1.37687,-16.7233 -10.40809,-31.7859 -24.65506,-41.120644 -6.44102,-4.220215 -14.90507,-7.272716 -22.1035,-7.97148 -3.26192,-0.316639 -3.02269,0.270533 -2.93427,-7.202195 l 0.0768,-6.487905 1.00012,-0.09629 c 2.70197,-0.260145 11.4294,1.381996 16.71638,3.145329 13.30185,4.43648 25.9105,14.236933 34.24689,26.619415 2.38272,3.53918 5.80095,10.42061 7.18525,14.46502 1.24239,3.62982 2.50885,8.64877 3.10429,12.30215 0.58772,3.6061 1.15369,9.86614 0.94189,10.41809 -0.14533,0.37871 -1.07226,0.44041 -6.61632,0.44041 -4.91336,0 -6.4714,-0.085 -6.54854,-0.35719 z"
         id="path81"
         inkscape:connector-curvature="0" />
      <path
         style="fill:#8ac03e;stroke-width:0.28575"
         d="m 94.600648,177.28281 c -6.830972,-0.41116 -13.727389,-1.33423 -17.985507,-2.40731 -2.949443,-0.74329 -8.518765,-2.52087 -8.822683,-2.81596 -0.221156,-0.21474 6.760171,-22.21833 7.188016,-22.65503 0.111371,-0.11368 1.333072,1.01098 2.714888,2.49925 4.076956,4.39102 8.161878,6.87504 12.719456,7.73464 3.684524,0.69494 6.583907,-0.1798 7.584409,-2.28821 0.61003,-1.28554 0.578752,-2.24074 -0.118098,-3.60668 -0.751031,-1.47214 -1.81973,-2.14775 -6.995232,-4.4222 -10.139531,-4.45597 -12.957172,-6.08314 -15.804628,-9.12709 -3.162186,-3.38038 -4.617677,-7.43953 -4.615351,-12.87152 0.0031,-7.29077 2.911401,-13.44495 8.088731,-17.11645 5.071632,-3.59656 11.298733,-5.43178 21.03474,-6.19927 5.492491,-0.43297 12.340531,-0.0142 19.442881,1.18903 7.16184,1.21328 13.33632,2.83278 13.62014,3.57242 0.14412,0.37556 -6.88411,20.92143 -7.30261,21.34798 -0.11977,0.12207 -0.90722,-0.57072 -1.74988,-1.53955 -3.33015,-3.82875 -8.28124,-6.94548 -12.42577,-7.82206 -3.97242,-0.84018 -6.48024,-0.44936 -8.20887,1.27928 -0.93321,0.93321 -1.07801,1.25391 -1.07801,2.38756 0,2.53088 2.12859,3.97678 11.00138,7.473 14.49543,5.71176 18.75271,9.17947 20.72184,16.87874 0.69338,2.71107 0.75902,7.45781 0.14358,10.38348 -2.24719,10.68279 -11.507,16.70137 -27.72139,18.01801 -3.3767,0.2742 -7.95214,0.3174 -11.432032,0.10794 z m 59.745462,-37.31568 c -0.0557,-0.19645 -0.24194,-2.06607 -0.4139,-4.15471 -1.37687,-16.7233 -10.40809,-31.7859 -24.65506,-41.120644 -6.44102,-4.220215 -14.90507,-7.272716 -22.1035,-7.97148 -3.26192,-0.316639 -3.02269,0.270533 -2.93427,-7.202195 l 0.0768,-6.487905 1.00012,-0.09629 c 2.70197,-0.260145 11.4294,1.381996 16.71638,3.145329 13.30185,4.43648 25.9105,14.236933 34.24689,26.619415 2.38272,3.53918 5.80095,10.42061 7.18525,14.46502 1.24239,3.62982 2.50885,8.64877 3.10429,12.30215 0.58772,3.6061 1.15369,9.86614 0.94189,10.41809 -0.14533,0.37871 -1.07226,0.44041 -6.61632,0.44041 -4.91336,0 -6.4714,-0.085 -6.54854,-0.35719 z"
         id="path79"
         inkscape:connector-curvature="0" />
      <path
         style="fill:#1c305e;stroke-width:0.28575"
         d="m 94.600648,177.28281 c -6.830972,-0.41116 -13.727389,-1.33423 -17.985507,-2.40731 -2.949443,-0.74329 -8.518765,-2.52087 -8.822683,-2.81596 -0.221156,-0.21474 6.760171,-22.21833 7.188016,-22.65503 0.111371,-0.11368 1.333072,1.01098 2.714888,2.49925 4.076956,4.39102 8.161878,6.87504 12.719456,7.73464 3.684524,0.69494 6.583907,-0.1798 7.584409,-2.28821 0.61003,-1.28554 0.578752,-2.24074 -0.118098,-3.60668 -0.751031,-1.47214 -1.81973,-2.14775 -6.995232,-4.4222 -10.139531,-4.45597 -12.957172,-6.08314 -15.804628,-9.12709 -3.162186,-3.38038 -4.617677,-7.43953 -4.615351,-12.87152 0.0031,-7.29077 2.911401,-13.44495 8.088731,-17.11645 5.071632,-3.59656 11.298733,-5.43178 21.03474,-6.19927 5.492491,-0.43297 12.340531,-0.0142 19.442881,1.18903 7.16184,1.21328 13.33632,2.83278 13.62014,3.57242 0.14412,0.37556 -6.88411,20.92143 -7.30261,21.34798 -0.11977,0.12207 -0.90722,-0.57072 -1.74988,-1.53955 -3.33015,-3.82875 -8.28124,-6.94548 -12.42577,-7.82206 -3.97242,-0.84018 -6.48024,-0.44936 -8.20887,1.27928 -0.93321,0.93321 -1.07801,1.25391 -1.07801,2.38756 0,2.53088 2.12859,3.97678 11.00138,7.473 14.49543,5.71176 18.75271,9.17947 20.72184,16.87874 0.69338,2.71107 0.75902,7.45781 0.14358,10.38348 -2.24719,10.68279 -11.507,16.70137 -27.72139,18.01801 -3.3767,0.2742 -7.95214,0.3174 -11.432032,0.10794 z"
         id="path77"
         inkscape:connector-curvature="0" />
    </g>
  </g>
</svg>
